<svg
  xmlns="http://www.w3.org/2000/svg"
  viewBox="0 0 500 500"
>
  <path
    d="M 250.001 0 C 111.931 0 0 111.915 0 250.01 C 0 388.076 111.931 500 250.001 500 C 388.062 500 500 388.076 500 249.99 C 500 111.933 388.053 0.018 250.001 0.018 L 250.001 0 Z M 250.001 467.912 C 210.715 467.912 178.856 441.667 178.856 409.304 L 321.144 409.304 C 321.144 441.657 289.306 467.912 250.02 467.912 L 250.001 467.912 Z M 367.498 389.899 L 132.504 389.899 L 132.504 347.277 L 367.498 347.277 L 367.498 389.89 L 367.498 389.899 Z M 366.643 325.355 L 133.168 325.355 C 132.41 324.46 131.601 323.578 130.852 322.665 C 106.801 293.458 101.12 278.21 95.631 262.672 C 95.536 262.177 124.791 268.655 145.546 273.338 C 145.546 273.338 156.221 275.809 171.827 278.657 C 156.848 261.084 147.95 238.764 147.95 215.927 C 147.95 165.802 186.379 122.011 172.512 86.609 C 186.001 87.711 200.436 115.107 201.425 157.909 C 215.769 138.093 221.77 101.885 221.77 79.686 C 221.77 56.697 236.92 30.007 252.071 29.085 C 238.564 51.341 255.567 70.424 270.689 117.757 C 276.349 135.538 275.628 165.459 279.998 184.438 C 281.459 145.019 288.232 87.522 313.241 67.67 C 302.205 92.671 314.857 123.959 323.529 139.006 C 337.52 163.256 345.982 181.656 345.982 216.422 C 345.982 239.732 337.377 261.674 322.863 278.828 C 339.361 275.733 350.76 272.94 350.76 272.94 L 404.369 262.49 C 404.399 262.49 396.582 294.52 366.661 325.373 L 366.643 325.355 Z"
    id="path4181"
    style="fill: rgb(218, 78, 49); stroke-width: 0.206;"
  />
</svg>
